<?xml version="1.0" encoding="utf-8"?>
<svg version="1.1" id="Capa_1" xmlns="http://www.w3.org/2000/svg" xmlns:xlink="http://www.w3.org/1999/xlink" x="0px" y="0px"
	 viewBox="0 0 24.6 17.1" style="enable-background:new 0 0 24.6 17.1;" xml:space="preserve">
<style type="text/css">
	.st0{fill:#EF0000;}
</style>
<g>
	<g>
		<path class="st0" d="M18.4,14.9l-8.1-14c-0.2-0.4-0.6-0.6-1-0.6s-0.8,0.2-1,0.6l-8.1,14c-0.2,0.4-0.2,0.8,0,1.2
			c0.2,0.4,0.6,0.6,1,0.6h16.2c0.7,0,1.2-0.5,1.2-1.2C18.6,15.3,18.5,15,18.4,14.9z M17.4,16H1.2c-0.2,0-0.3-0.1-0.4-0.2
			c-0.1-0.2-0.1-0.3,0-0.5L8.9,1.2C9,1.1,9.1,1,9.3,1s0.3,0.1,0.4,0.2l8.1,14c0.1,0.1,0.1,0.2,0.1,0.3C17.9,15.8,17.7,16,17.4,16z"
			/>
		<polygon class="st0" points="9.7,11.9 9.9,5.5 8.5,5.5 8.7,11.9 		"/>
		<path class="st0" d="M9.2,12.8c-0.5,0-0.8,0.4-0.8,0.9c0,0.5,0.4,0.9,0.8,0.9c0.5,0,0.8-0.4,0.8-0.9S9.7,12.8,9.2,12.8z"/>
	</g>
</g>
</svg>
