<?xml version="1.0" encoding="utf-8"?>
<svg version="1.1" id="Layer_1" xmlns="http://www.w3.org/2000/svg" xmlns:xlink="http://www.w3.org/1999/xlink" x="0px" y="0px"
	 viewBox="0 0 30 30" style="enable-background:new 0 0 30 30;" xml:space="preserve">
<style type="text/css">
	.st0{fill:none;stroke:#A3A3A3;stroke-width:2;stroke-miterlimit:10;}
	.st1{fill:#FFFFFF;stroke:#A3A3A3;stroke-width:2;stroke-miterlimit:10;}
</style>
<polyline class="st0" points="19,7.1 8.1,14.4 19.5,21.1 "/>
<path class="st1" d="M11,14.4c0,1.6-1.3,2.9-2.9,2.9S5.2,16,5.2,14.4s1.3-2.9,2.9-2.9S11,12.8,11,14.4z M19,4.2
	c-1.6,0-2.9,1.3-2.9,2.9S17.4,10,19,10c1.6,0,2.9-1.3,2.9-2.9S20.6,4.2,19,4.2z M19.5,18.2c-1.6,0-2.9,1.3-2.9,2.9
	c0,1.6,1.3,2.9,2.9,2.9s2.9-1.3,2.9-2.9C22.4,19.5,21.1,18.2,19.5,18.2z"/>
</svg>
