<?xml version="1.0" encoding="utf-8"?>
<svg version="1.1" id="Capa_1" xmlns="http://www.w3.org/2000/svg" xmlns:xlink="http://www.w3.org/1999/xlink" x="0px" y="0px"
	 viewBox="0 0 24.6 19.5" style="enable-background:new 0 0 24.6 19.5;" xml:space="preserve">
<style type="text/css">
	.st0{fill:#EF0000;}
</style>
<g>
	<g>
		<path class="st0" d="M18.4,17.3l-8.1-14c-0.2-0.4-0.6-0.6-1-0.6c-0.4,0-0.8,0.2-1,0.6L0.2,17.3c-0.2,0.4-0.2,0.8,0,1.2
			c0.2,0.4,0.6,0.6,1,0.6h16.2c0.7,0,1.2-0.5,1.2-1.2C18.6,17.7,18.5,17.4,18.4,17.3z M17.4,18.4H1.2c-0.2,0-0.3-0.1-0.4-0.2
			c-0.1-0.2-0.1-0.3,0-0.5L8.9,3.6C9,3.5,9.1,3.4,9.3,3.4c0.2,0,0.3,0.1,0.4,0.2l8.1,14c0.1,0.1,0.1,0.2,0.1,0.3
			C17.9,18.2,17.7,18.4,17.4,18.4z"/>
		<polygon class="st0" points="9.7,14.3 9.9,7.9 8.5,7.9 8.7,14.3 		"/>
		<path class="st0" d="M9.2,15.2c-0.5,0-0.8,0.4-0.8,0.9c0,0.5,0.4,0.9,0.8,0.9c0.5,0,0.8-0.4,0.8-0.9C10,15.6,9.7,15.2,9.2,15.2z"
			/>
	</g>
</g>
</svg>
