<svg xmlns="http://www.w3.org/2000/svg" viewBox="0 0 244 45">
  <path fill="#0f499b" fill-rule="evenodd" d="M96.5 23.1h8.8v-3.7h-8.8v-2.9h9.5v-3.8H90.8v18h15.4v-4.1h-9.8v-3.5zM22.3 26c-.6.6-1.4.9-2.5.9s-2-.4-2.6-1.1c-.6-.7-.9-2.1-.9-4.1 0-1.6.3-2.8.8-3.5.7-1 1.7-1.5 2.9-1.5.6 0 1.1.1 1.5.3.5.2.8.6 1.2 1l.5 1.2 5-1.1a7.8 7.8 0 0 0-2.9-4.2 9.4 9.4 0 0 0-5.4-1.4c-2.9 0-5.2.8-6.8 2.4-1.6 1.6-2.4 3.9-2.4 6.9 0 2.2.5 4.1 1.4 5.5.9 1.4 2 2.4 3.3 3 1.3.6 2.9.8 4.9.8 1.6 0 3-.2 4.1-.7a7 7 0 0 0 2.7-2.1c.7-.9 1.2-2.1 1.6-3.4l-5-1.5c-.5 1.1-.9 2-1.4 2.6zm104.6-13.3h-6.2l-3.1 5.5-3.2-5.5h-6.2l5.7 8.6-6.3 9.4h6.3l3.6-5.8 3.6 5.8h6.4l-6.2-9.3 5.6-8.7zm-64 6.3h-6.2v-6.3H51v18h5.7v-7.3h6.2v7.3h5.7v-18h-5.7V19zm-26.7-6.3l-6.9 18h5.8l.9-3h6.4l.9 3h5.9l-6.9-18h-6.1zm1 11.2l2-6.5 2 6.5h-4zm33.9-6.7h5.8v13.5h5.7V17.2h5.8v-4.4H71.1v4.4zM232.6 2.6H12.3a6 6 0 0 0-5.7 4c1.1-1 2.7-1.5 4.7-1.5h222.1c2 0 3.6.6 4.5 1.6a5.3 5.3 0 0 0-5.3-4.1zm4.2-2.6H7.2A7 7 0 0 0 0 6.9v28.5C0 39.3 3.2 43 7.2 43h120.4c0 1.1 1.1 2 2.5 2h18.7c1.4 0 2.5-.9 2.5-2h85.5c3.9 0 7.2-3.8 7.2-7.6V6.9a7 7 0 0 0-7.2-6.9zM5.4 41c-3-.8-4.3-3.4-4.3-6.2V8.9c0-4.6 1.6-6.8 4.2-7.4-1.9.9-3 4.4-3 6.6v26.6c0 2.3 1.1 5.5 3.1 6.3zm143.9-2.4c0 .3-.3.5-.7.5h-17.9c-.4 0-.7-.2-.7-.5v-1.1c0-.3.3-.5.7-.5h17.9c.4 0 .7.2.7.5v1.1zm82.4 1.8h-80.3v-1.1h79.7c3.1 0 5.5-1.3 6.6-3.1a6.9 6.9 0 0 1-4.7 1.7h-81.7v-1.4c0-1.1-1.1-2-2.5-2h-5.9c.6-.2 1-.6 1-1v-4.1c0-.6-.8-1.1-2-1.2v-5.4h-5.2v5.5c-1.1.2-1.8.7-1.8 1.2v4.1c0 .4.4.8 1 1H130c-1.4 0-2.5.9-2.5 2V38H10.9c-1.7 0-3.1-.5-4.1-1.3.8 1.6 2.6 2.7 5.1 2.7h115.6v1.1H12c-4.9 0-7.1-2.9-7.1-6.1V9.3c0-5.2 2.6-7.9 6.4-7.9h222.9c3 0 5.5 3.1 5.5 6.2v25.7c0 3.8-2.5 7.1-8 7.1zm11.3-5.5c0 2.8-1.3 5.3-4.2 6.1h-.1.1c1.9-.8 3-4 3-6.3V8.1c0-2.2-1.2-5.7-3-6.6h-.1.1c2.6.6 4.2 2.8 4.2 7.4v26z" class="st0" clip-rule="evenodd"/>
  <path fill="#e3000f" fill-rule="evenodd" d="M184 12.7l-6.9 18h5.8l.9-3h6.4l.9 3h5.9l-6.9-18H184zm1 11.2l2-6.5 2 6.5h-4zm-19.9-.2l-2.9-10.9h-7.4v18h4.6V17l3.6 13.7h4.2l3.6-13.7v13.7h4.6v-18H168l-2.9 11zm51-11v4.4h5.8v13.5h5.7V17.2h5.8v-4.4h-17.3zm-7.9 0h-9.4v18h5.7V24h3.1c2.3 0 4-.5 5.1-1.5 1.1-1 1.7-2.4 1.7-4.3 0-1.8-.5-3.1-1.5-4.1a7.1 7.1 0 0 0-4.7-1.4zm0 7.1c-.4.4-1.2.6-2.3.6h-1.4v-4h1.6c1.1 0 1.8.2 2.2.6.4.4.6.9.6 1.4 0 .6-.3 1.1-.7 1.4zm-59-1.4h-6.3l-1 1.8h-.9l-.2-1.4h-2.9l-.2 1.4h-1.1l-.8-1.7h-6.1l-.9.5-1 4.4.6.6 7.1-.1.6 1.4h3.3v-1.4h1.7l-.1 1.4h1.9l.6-1.1h6.5l.8-.6-.9-4.5-.7-.7z" class="st0" clip-rule="evenodd"/>
</svg>
