<svg xmlns="http://www.w3.org/2000/svg" viewBox="0 0 106 26">
  <path fill="#999" fill-rule="evenodd" d="M4.6 14.7c1.4 0 2.3.9 2.6 2.2h2c-.5-2.6-2.2-4-4.6-4-1.3 0-2.5.5-3.4 1.4C0 15.5 0 16.8 0 19.1v.7c0 2.3 0 3.6 1.3 4.9.9.9 2 1.4 3.4 1.4 2.3 0 4.2-1.4 4.6-4h-2c-.3 1.3-1.2 2.2-2.6 2.2-.8 0-1.5-.3-1.9-.8-.6-.7-.8-1.4-.8-4s.1-3.3.8-4c.4-.6 1.1-.8 1.8-.8zM15 13l-4.7 13h2.1l.9-2.6h5.1l.9 2.6h2l-4.7-13H15zm-1.2 8.7l2-5.8 2 5.8h-4zm11.2.7V13h-2v13h1.8l5.8-9.4V26h2V13h-1.8L25 22.4zm2.9-10.2c1.5 0 2.7-.6 2.8-2.4h-1.5c-.1.8-.6 1.2-1.3 1.2-.8 0-1.3-.4-1.3-1.2h-1.5c.1 1.8 1.3 2.4 2.8 2.4zm6.9 2.6h3.6V26h2V14.8H44V13h-9.1v1.8zm15.4 8.5l-.9 2.5h6.9l-.9-2.5h-5.1zM46 25.9h1.3L52 13h1.6l4.7 12.9h2.1V13h2v6.2l4.8-6.2h2.4l-5 6.1 5.4 6.8h4V14.8h-3.5V13h9.1v1.8H76v11.1h5.8V13h2v9.4l5.8-9.4h1.8v12.9h3.4V13h5c2.4 0 3.9 1.4 3.9 3.5 0 1.3-.6 2.3-1.7 2.8 1.3.6 1.9 1.5 1.9 3 0 2-1.2 3.3-3.1 3.6h5.3V9H46v16.9zm4.8-4.2h4l-2-5.8-2 5.8zm51 .5c0-1.2-.8-2-2.1-2h-3.1v4h3.1c1.3 0 2.1-.8 2.1-2zm-.2-5.6c0-1.2-.8-1.9-2.1-1.9h-2.9v3.7h2.9c1.3.1 2.1-.6 2.1-1.8zm-39.3 9.3h5.2l-5.2-6.7v6.7zm27 0v-9.4l-5.7 9.4h5.7zM92 5h-9v3h9V5zm2-5v8h12V0H94zM69 5.9h-9.1v2H69v-2zm12-2h-9V8h9V3.9z" clip-rule="evenodd"/>
</svg>
